<svg xmlns="http://www.w3.org/2000/svg" viewBox="0 0 366.58 377.14"><defs><style>.cls-1{fill:#ffc99a;}</style></defs><g id="Layer_2" data-name="Layer 2"><g id="Layer_1-2" data-name="Layer 1"><path class="cls-1" d="M122.88,236.71l47,31.92,14.58,9.9,14.4-9.9,46.4-31.92ZM333.7,131.16,184.53,233.75,33.27,131.11,0,108.54v268.6H366.58V108.54Zm0,214.09H33.27V175.91l89.61,60.8,47,31.92,14.58,9.9,14.4-9.9,46.4-31.92,88.4-60.8ZM122.88,236.71l47,31.92,14.58,9.9,14.4-9.9,46.4-31.92Z"/><path class="cls-1" d="M184.53,125.24,0,0V268.63H33.27V67.4L184.5,170,333.7,67.4V268.63h32.88V0ZM169.92,268.63h29l46.4-31.92H122.88Z"/></g></g></svg>