<svg width="44" height="44" viewBox="0 0 44 44" fill="none" xmlns="http://www.w3.org/2000/svg">
<path fill-rule="evenodd" clip-rule="evenodd" d="M33.7867 42.0045C35.9933 44.2111 39.5704 44.2111 41.777 42.0045C43.983 39.7985 43.983 36.2208 41.777 34.0148L29.8761 22.1139L41.777 10.213C43.9835 8.00647 43.9835 4.42932 41.777 2.22278C39.5709 0.0167236 35.9933 0.0167236 33.7872 2.22278L21.8859 14.1241L9.98499 2.22278C7.77844 0.0162354 4.20129 0.0162354 1.99524 2.22278C-0.211304 4.42932 -0.211304 8.00647 1.99524 10.213L13.8961 22.1139L1.99524 34.0148C-0.211304 36.2213 -0.211304 39.7985 1.99524 42.0045C4.20178 44.2111 7.77893 44.2111 9.98547 42.0045L21.8859 30.1036L33.7867 42.0045Z" fill="#001524"/>
</svg>
