<svg xmlns="http://www.w3.org/2000/svg" viewBox="0 0 151.91 129.26"><defs><style>.cls-1{fill:#fff;}</style></defs><g id="Layer_2" data-name="Layer 2"><g id="Layer_1-2" data-name="Layer 1"><path class="cls-1" d="M128.43,9.6V118.66a9.32,9.32,0,0,1-9.58,9.6q-54.55,0-109.11,0A9.39,9.39,0,0,1,.19,119.7H.09l-.09,0a.26.26,0,0,1,.19,0h0a.25.25,0,0,1,.18.13c.6,1.39.82,2.91,1.74,4.18a9.36,9.36,0,0,0,7.33,3.93c.4,0,.8,0,1.2,0q53.66,0,107.31,0a10.34,10.34,0,0,0,6.34-1.77A8.55,8.55,0,0,0,128,118.9q0-25.56,0-51.12c0-19.19-.11-38.39.06-57.58,0-5.73-4-9.91-10-9.89q-46,.09-92,0c-5.39,0-10.78,0-16.17,0A9.24,9.24,0,0,0,1.8,4.79,26.84,26.84,0,0,0,.39,8.47a.27.27,0,0,1-.18.12s0,0,0,0a.26.26,0,0,1-.19,0,.31.31,0,0,1,.19,0A9.4,9.4,0,0,1,9.87,0h109A9.32,9.32,0,0,1,128.43,9.6Z"/><path class="cls-1" d="M151.91,120.3a8.7,8.7,0,0,1-7.68,8.76l-.07,0s0,0,0,0a.21.21,0,0,1,.07-.13c.89-.46,1.9-.57,2.79-1.05a8.5,8.5,0,0,0-.87-15.43,8.13,8.13,0,0,0-8.87,1.78,8.5,8.5,0,0,0,2.67,14c.64.26,1.53.14,1.86,1-.34-.4-.85-.34-1.29-.47a8.81,8.81,0,1,1,11.39-8.49Z"/><path class="cls-1" d="M144.38,121l.5-.14a2.43,2.43,0,0,0,2-2.73,2.32,2.32,0,0,0-2.24-2.36,27.54,27.54,0,0,0-4.06-.11c-.59,0-.61.34-.61.78,0,2.63,0,5.26,0,7.89,0,.57.2.76.76.78s.66-.38.65-.85c0-.83,0-1.67,0-2.51,0-.6.23-.73.77-.74a1.29,1.29,0,0,1,1.28.66c.52.89,1.14,1.73,1.64,2.63a1.34,1.34,0,0,0,1.93.62Zm-2.58-1.11c-.36,0-.47-.2-.47-.53a17.19,17.19,0,0,1,0-2c.14-1.14,1.11-.07,1.39-.52a5.36,5.36,0,0,1,1.8.17,1.29,1.29,0,0,1,.87,1.29,1.33,1.33,0,0,1-.88,1.41A8.06,8.06,0,0,1,141.8,119.88Z"/><path class="cls-1" d="M143.87,111.59a8.81,8.81,0,0,0-3.35,17.2c.44.13.95.07,1.29.47h.24c.67-.46,1.4-.17,2.11-.2,0,0,0,0,0,0l.07,0a8.7,8.7,0,0,0,7.68-8.76A8.8,8.8,0,0,0,143.87,111.59Zm-.72,16.5a7.73,7.73,0,1,1,7.72-7.7A7.78,7.78,0,0,1,143.15,128.09Z"/><path class="cls-1" d="M.21,119.67s0,0,0,0H.09l-.09,0V8.58a.31.31,0,0,1,.19,0l0,0a1.46,1.46,0,0,1,.4,1.17c0,.4,0,.8,0,1.2q0,53.17,0,106.34C.62,118.1.85,119,.21,119.67Z"/><path class="cls-1" d="M144.23,129.06l-.07,0s0,0,0,0Z"/><path class="cls-1" d="M118.85,0H9.87A9.4,9.4,0,0,0,.19,8.57v0c0,.38,0,.77,0,1.16q0,54.38,0,108.74c0,.39,0,.77,0,1.16v0a9.39,9.39,0,0,0,9.55,8.56q54.55,0,109.11,0a9.32,9.32,0,0,0,9.58-9.6V9.6A9.32,9.32,0,0,0,118.85,0ZM39.72,28.67a11,11,0,1,1-11.09-11A11,11,0,0,1,39.72,28.67ZM19.18,49.2c0-.8.18-1.1,1.05-1.09q8.44.06,16.88,0c1,0,1.09.36,1.09,1.19q0,14.67,0,29.33c0,9.77,0,19.55,0,29.32,0,1-.22,1.28-1.24,1.27-5.55,0-11.1,0-16.65,0-.87,0-1.14-.19-1.14-1.12Q19.23,78.64,19.18,49.2ZM109.45,108c0,.94-.24,1.21-1.19,1.2q-8.25-.08-16.52,0c-1,0-1.26-.24-1.26-1.24q.06-15.27,0-30.53A30,30,0,0,0,89.88,71c-1.25-5.71-4.82-8.31-10.63-7.73s-9,3.93-9.78,10.21a39.87,39.87,0,0,0-.29,4.89c0,9.85,0,19.71,0,29.57,0,1-.28,1.25-1.26,1.24q-8.33-.08-16.65,0c-.91,0-1.12-.26-1.12-1.14q0-29.4,0-58.78c0-1,.31-1.19,1.22-1.18q7.91.06,15.81,0c1,0,1.2.31,1.18,1.22-.06,2.35,0,4.69,0,7l.31.13A20.06,20.06,0,0,1,86.39,46.6c4.22,0,8.35.48,12.21,2.38,5.67,2.8,8.31,7.77,9.66,13.64a59,59,0,0,1,1.2,13.19C109.47,86.55,109.43,97.28,109.45,108Z"/><path class="cls-1" d="M144.38,121l.5-.14a2.43,2.43,0,0,0,2-2.73,2.32,2.32,0,0,0-2.24-2.36,27.54,27.54,0,0,0-4.06-.11c-.59,0-.61.34-.61.78,0,2.63,0,5.26,0,7.89,0,.57.2.76.76.78s.66-.38.65-.85c0-.83,0-1.67,0-2.51,0-.6.23-.73.77-.74a1.29,1.29,0,0,1,1.28.66c.52.89,1.14,1.73,1.64,2.63a1.34,1.34,0,0,0,1.93.62Zm-2.58-1.11c-.36,0-.47-.2-.47-.53a17.19,17.19,0,0,1,0-2c.14-1.14,1.11-.07,1.39-.52a5.36,5.36,0,0,1,1.8.17,1.29,1.29,0,0,1,.87,1.29,1.33,1.33,0,0,1-.88,1.41A8.06,8.06,0,0,1,141.8,119.88Z"/><path class="cls-1" d="M144.38,121l.5-.14a2.43,2.43,0,0,0,2-2.73,2.32,2.32,0,0,0-2.24-2.36,27.54,27.54,0,0,0-4.06-.11c-.59,0-.61.34-.61.78,0,2.63,0,5.26,0,7.89,0,.57.2.76.76.78s.66-.38.65-.85c0-.83,0-1.67,0-2.51,0-.6.23-.73.77-.74a1.29,1.29,0,0,1,1.28.66c.52.89,1.14,1.73,1.64,2.63a1.34,1.34,0,0,0,1.93.62Zm-2.58-1.11c-.36,0-.47-.2-.47-.53a17.19,17.19,0,0,1,0-2c.14-1.14,1.11-.07,1.39-.52a5.36,5.36,0,0,1,1.8.17,1.29,1.29,0,0,1,.87,1.29,1.33,1.33,0,0,1-.88,1.41A8.06,8.06,0,0,1,141.8,119.88Z"/></g></g></svg>