<svg xmlns="http://www.w3.org/2000/svg" viewBox="0 0 292.69 78.96"><defs><style>.cls-1{fill:#012622;}.cls-2{fill:#00bd9d;}</style></defs><g id="Layer_2" data-name="Layer 2"><g id="Layer_1-2" data-name="Layer 1"><path class="cls-1" d="M9.48,77.53A31.71,31.71,0,0,1,0,73.9L5.1,62.28A28.61,28.61,0,0,0,13,65.54a35,35,0,0,0,9,1.21,14.45,14.45,0,0,0,5.86-.85,2.67,2.67,0,0,0,1.74-2.46q0-1.61-2.1-2.28a43.33,43.33,0,0,0-6.66-1.3A65.44,65.44,0,0,1,11,58a15.29,15.29,0,0,1-7-4.3C2,51.61,1,48.68,1,44.93a13.23,13.23,0,0,1,2.78-8.27,18.27,18.27,0,0,1,8.09-5.73,34.69,34.69,0,0,1,12.74-2.1A52,52,0,0,1,35.06,29.9,30,30,0,0,1,43.73,33l-5.1,11.53a28.3,28.3,0,0,0-14-3.58,14,14,0,0,0-5.9.94A2.81,2.81,0,0,0,16.9,44.3c0,1.14.69,1.93,2.06,2.37a46.79,46.79,0,0,0,6.8,1.39,74.62,74.62,0,0,1,9.92,2.06,15.2,15.2,0,0,1,6.84,4.24q2.91,3.09,2.91,8.63a13.2,13.2,0,0,1-2.77,8.19,18.09,18.09,0,0,1-8.19,5.67,36.43,36.43,0,0,1-13,2.06A52.43,52.43,0,0,1,9.48,77.53Z"/><path class="cls-1" d="M91.79,56.21a18,18,0,0,1-3.64,4.86,16.53,16.53,0,0,1-5.27,3.09,13.87,13.87,0,0,1-7.94.92,9.86,9.86,0,0,1-6-3.88l32.86-12.72c-.81-2.56-1.23-3.9-1.27-4A25.48,25.48,0,0,0,92.5,33.16a22.82,22.82,0,0,0-11.85-4.72,30.49,30.49,0,0,0-24.94,9.9,23.89,23.89,0,0,0-4.24,24.94A23.69,23.69,0,0,0,72,78.84a32.93,32.93,0,0,0,15.09-2.39q12.68-4.9,16.42-14.8ZM67.17,47.08a8.47,8.47,0,0,1,4.09-4.46,6,6,0,0,1,5.34-.29,13.1,13.1,0,0,1,5.09,5.46L66.45,54A12.78,12.78,0,0,1,67.17,47.08Z"/><path class="cls-1" d="M156.28,34.2q5.49,5.36,5.5,16.18V78.11h-17v-25q0-9.93-7.95-9.93a9.06,9.06,0,0,0-7,2.86q-2.64,2.86-2.64,8.59V78.11h-17V11.75h17V34.11a18.54,18.54,0,0,1,6.53-3.94,23.8,23.8,0,0,1,8-1.34Q150.79,28.83,156.28,34.2Z"/><path class="cls-1" d="M211.5,34.33q6.34,5.51,6.35,16.86V78.11H202V71.85q-3.68,7.07-14.31,7.06a22.4,22.4,0,0,1-9.75-2,14.4,14.4,0,0,1-6.21-5.32,14.07,14.07,0,0,1-2.1-7.64,12.41,12.41,0,0,1,5.27-10.69q5.28-3.8,16.28-3.8h9.66q-.45-7.69-10.29-7.69a23.42,23.42,0,0,0-7.06,1.12A18.69,18.69,0,0,0,177.43,46L171.7,34.47a31.65,31.65,0,0,1,9.8-4.16,46.21,46.21,0,0,1,11.58-1.48Q205.15,28.83,211.5,34.33ZM197.64,66.75a8,8,0,0,0,3.22-4.2V58.34h-7.34q-7.43,0-7.42,4.92a4.35,4.35,0,0,0,1.7,3.58,7.33,7.33,0,0,0,4.65,1.34A9.45,9.45,0,0,0,197.64,66.75Z"/><path class="cls-1" d="M262,76.14a17.26,17.26,0,0,1-5.23,2.06,29.34,29.34,0,0,1-6.57.71q-9.48,0-14.58-4.65T230.55,60.4V44.12h-7.07V31.43h7.07V18.82h17V31.43h11.09V44.12H247.54v16.1a5.72,5.72,0,0,0,1.38,4.07,4.88,4.88,0,0,0,3.72,1.48,9,9,0,0,0,5.18-1.52Z"/><path class="cls-1" d="M268.56,29.64V78.11h17V29.64ZM283.19,8.79c-.83,0-1.5.9-1.5,2s.67,2,1.5,2,1.5-.9,1.5-2S284,8.79,283.19,8.79Zm-12,0c-.83,0-1.5.9-1.5,2s.67,2,1.5,2,1.5-.9,1.5-2S272,8.79,271.19,8.79Z"/><path class="cls-2" d="M282.49.24A8.48,8.48,0,0,0,277,4.49c-.11,0-.14,0-.15-.06l-.47-.7A8,8,0,0,0,268.69.08a7.78,7.78,0,0,0-7,5.58,10.22,10.22,0,0,0,1.24,8.91,35.15,35.15,0,0,0,13.19,12.11,1.6,1.6,0,0,0,1.71,0A37.52,37.52,0,0,0,290.09,16a12.51,12.51,0,0,0,2.6-7.85A8.31,8.31,0,0,0,282.49.24Zm.7,12.55c-.83,0-1.5-.9-1.5-2s.67-2,1.5-2,1.5.9,1.5,2S284,12.79,283.19,12.79Zm-12,0c-.83,0-1.5-.9-1.5-2s.67-2,1.5-2,1.5.9,1.5,2S272,12.79,271.19,12.79Z"/><ellipse class="cls-2" cx="271.19" cy="10.79" rx="1.5" ry="2"/><ellipse class="cls-2" cx="283.19" cy="10.79" rx="1.5" ry="2"/><path class="cls-1" d="M52,32.71s10-13.9,20.11-14.47l1.16,4s-9.22.52-19.5,12Z"/><ellipse class="cls-1" cx="271.19" cy="10.79" rx="1.5" ry="2"/><ellipse class="cls-1" cx="283.19" cy="10.79" rx="1.5" ry="2"/><path class="cls-1" d="M277.19,22.29c-6.06,0-6.95-4.1-7-4.28l2-.4c0,.1.67,2.68,5,2.68Z"/></g></g></svg>